<svg width="18" height="18" viewBox="0 0 18 18" fill="none" xmlns="http://www.w3.org/2000/svg">
<path d="M15.675 2.25H2.325C2.1062 2.25 1.89635 2.33692 1.74164 2.49164C1.58692 2.64635 1.5 2.8562 1.5 3.075V16.425C1.5 16.5333 1.52134 16.6406 1.5628 16.7407C1.60426 16.8408 1.66503 16.9318 1.74164 17.0084C1.81825 17.085 1.90919 17.1457 2.00929 17.1872C2.10938 17.2287 2.21666 17.25 2.325 17.25H9.51V11.4375H7.56V9.1875H9.51V7.5C9.46961 7.10382 9.51638 6.70359 9.64704 6.3274C9.77769 5.95121 9.98907 5.60816 10.2663 5.32231C10.5436 5.03646 10.8801 4.81473 11.2521 4.67268C11.6242 4.53063 12.0228 4.47169 12.42 4.5C13.0037 4.49641 13.5872 4.52646 14.1675 4.59V6.615H12.975C12.03 6.615 11.85 7.065 11.85 7.7175V9.165H14.1L13.8075 11.415H11.85V17.25H15.675C15.7833 17.25 15.8906 17.2287 15.9907 17.1872C16.0908 17.1457 16.1818 17.085 16.2584 17.0084C16.335 16.9318 16.3957 16.8408 16.4372 16.7407C16.4787 16.6406 16.5 16.5333 16.5 16.425V3.075C16.5 2.96666 16.4787 2.85938 16.4372 2.75929C16.3957 2.65919 16.335 2.56825 16.2584 2.49164C16.1818 2.41503 16.0908 2.35426 15.9907 2.3128C15.8906 2.27134 15.7833 2.25 15.675 2.25Z" fill="#F0F0F0" fill-opacity="0.933333"/>
</svg>
