<svg width="18" height="18" viewBox="0 0 18 18" fill="none" xmlns="http://www.w3.org/2000/svg">
<path d="M9 5.64C8.63213 5.64 8.27251 5.74909 7.96664 5.95347C7.66076 6.15785 7.42236 6.44834 7.28158 6.78821C7.1408 7.12808 7.10397 7.50206 7.17574 7.86287C7.24751 8.22367 7.42465 8.55509 7.68478 8.81522C7.94491 9.07534 8.27633 9.25249 8.63713 9.32426C8.99794 9.39603 9.37192 9.35919 9.71179 9.21842C10.0517 9.07764 10.3422 8.83924 10.5465 8.53336C10.7509 8.22748 10.86 7.86787 10.86 7.5C10.86 7.25574 10.8119 7.01387 10.7184 6.78821C10.6249 6.56254 10.4879 6.3575 10.3152 6.18478C10.1425 6.01206 9.93746 5.87506 9.71179 5.78158C9.48612 5.68811 9.24426 5.64 9 5.64ZM16.4475 3.8025C16.4436 3.22332 16.3369 2.64943 16.1325 2.1075C15.982 1.71094 15.749 1.35082 15.4491 1.05089C15.1492 0.750958 14.7891 0.518038 14.3925 0.3675C13.8506 0.163098 13.2767 0.0564457 12.6975 0.0524999C11.73 -5.02914e-08 11.445 0 9 0C6.555 0 6.27 -5.02914e-08 5.3025 0.0524999C4.72332 0.0564457 4.14943 0.163098 3.6075 0.3675C3.21094 0.518038 2.85082 0.750958 2.55089 1.05089C2.25096 1.35082 2.01804 1.71094 1.8675 2.1075C1.6631 2.64943 1.55645 3.22332 1.5525 3.8025C1.5 4.77 1.5 5.055 1.5 7.5C1.5 9.945 1.5 10.23 1.5525 11.1975C1.56057 11.7787 1.66708 12.3544 1.8675 12.9C2.01737 13.2947 2.2501 13.6528 2.55 13.95C2.84865 14.2517 3.20954 14.4846 3.6075 14.6325C4.14943 14.8369 4.72332 14.9436 5.3025 14.9475C6.27 15 6.555 15 9 15C11.445 15 11.73 15 12.6975 14.9475C13.2767 14.9436 13.8506 14.8369 14.3925 14.6325C14.7905 14.4846 15.1514 14.2517 15.45 13.95C15.7499 13.6528 15.9826 13.2947 16.1325 12.9C16.3367 12.3554 16.4433 11.7791 16.4475 11.1975C16.5 10.23 16.5 9.945 16.5 7.5C16.5 5.055 16.5 4.77 16.4475 3.8025ZM14.5425 9.8025C14.5184 10.2653 14.4197 10.7212 14.25 11.1525C14.1044 11.5123 13.8879 11.8391 13.6135 12.1135C13.3391 12.3879 13.0123 12.6044 12.6525 12.75C12.2171 12.9102 11.7587 12.9988 11.295 13.0125C10.7025 13.0125 10.545 13.0125 9 13.0125C7.455 13.0125 7.2975 13.0125 6.705 13.0125C6.2413 12.9988 5.78287 12.9102 5.3475 12.75C4.97558 12.6118 4.63971 12.3913 4.365 12.105C4.09325 11.8359 3.88338 11.5109 3.75 11.1525C3.58917 10.7176 3.50295 10.2586 3.495 9.795C3.495 9.2025 3.495 9.045 3.495 7.5C3.495 5.955 3.495 5.7975 3.495 5.205C3.50295 4.74137 3.58917 4.28241 3.75 3.8475C3.88821 3.47558 4.10871 3.13971 4.395 2.865C4.66525 2.59472 4.98995 2.38507 5.3475 2.25C5.78287 2.0898 6.2413 2.00116 6.705 1.9875C7.2975 1.9875 7.455 1.9875 9 1.9875C10.545 1.9875 10.7025 1.9875 11.295 1.9875C11.7587 2.00116 12.2171 2.0898 12.6525 2.25C13.0244 2.38821 13.3603 2.60871 13.635 2.895C13.9067 3.16406 14.1166 3.4891 14.25 3.8475C14.4102 4.28287 14.4988 4.7413 14.5125 5.205C14.5125 5.7975 14.5125 5.955 14.5125 7.5C14.5125 9.045 14.565 9.2025 14.5425 9.795V9.8025ZM13.3425 4.2225C13.2532 3.98024 13.1124 3.76023 12.9298 3.57766C12.7473 3.39509 12.5273 3.2543 12.285 3.165C11.9524 3.04969 11.602 2.99384 11.25 3C10.665 3 10.5 3 9 3C7.5 3 7.335 3 6.75 3C6.3962 3.00346 6.0458 3.06948 5.715 3.195C5.47645 3.28024 5.25877 3.41528 5.07644 3.59115C4.89411 3.76702 4.7513 3.97968 4.6575 4.215C4.54858 4.54902 4.49537 4.8987 4.5 5.25C4.5 5.835 4.5 6 4.5 7.5C4.5 9 4.5 9.165 4.5 9.75C4.50744 10.1034 4.57333 10.4531 4.695 10.785C4.7843 11.0273 4.92509 11.2473 5.10766 11.4298C5.29023 11.6124 5.51024 11.7532 5.7525 11.8425C6.0725 11.9602 6.40924 12.026 6.75 12.0375C7.335 12.0375 7.5 12.0375 9 12.0375C10.5 12.0375 10.665 12.0375 11.25 12.0375C11.6038 12.034 11.9542 11.968 12.285 11.8425C12.5273 11.7532 12.7473 11.6124 12.9298 11.4298C13.1124 11.2473 13.2532 11.0273 13.3425 10.785C13.468 10.4542 13.534 10.1038 13.5375 9.75C13.5375 9.165 13.5375 9 13.5375 7.5C13.5375 6 13.5375 5.835 13.5375 5.25C13.5377 4.89585 13.4716 4.54479 13.3425 4.215V4.2225ZM9 10.365C8.62412 10.365 8.25192 10.2908 7.90475 10.1468C7.55757 10.0027 7.24223 9.79154 6.97679 9.52541C6.71134 9.25927 6.50102 8.94337 6.35786 8.59582C6.2147 8.24827 6.14151 7.87588 6.1425 7.5C6.1425 6.93304 6.31072 6.37882 6.62586 5.90751C6.94101 5.43621 7.3889 5.069 7.91285 4.85237C8.4368 4.63575 9.01324 4.57945 9.5692 4.69061C10.1252 4.80177 10.6356 5.07538 11.036 5.47681C11.4364 5.87823 11.7087 6.38943 11.8184 6.94568C11.9281 7.50193 11.8703 8.07822 11.6523 8.60159C11.4343 9.12497 11.0659 9.5719 10.5937 9.88581C10.1216 10.1997 9.56696 10.3665 9 10.365ZM12 5.1975C11.8342 5.17995 11.6808 5.10167 11.5693 4.97773C11.4578 4.85379 11.3961 4.69297 11.3961 4.52625C11.3961 4.35953 11.4578 4.19871 11.5693 4.07477C11.6808 3.95083 11.8342 3.87255 12 3.855C12.1658 3.87255 12.3192 3.95083 12.4307 4.07477C12.5422 4.19871 12.6039 4.35953 12.6039 4.52625C12.6039 4.69297 12.5422 4.85379 12.4307 4.97773C12.3192 5.10167 12.1658 5.17995 12 5.1975Z" fill="#F0F0F0" fill-opacity="0.933333"/>
</svg>
