<svg width="19" height="19" viewBox="0 0 19 19" fill="none" xmlns="http://www.w3.org/2000/svg">
<path d="M9.50077 0C6.92073 0 6.59694 0.0112814 5.58361 0.0573959C4.57226 0.103708 3.88193 0.263822 3.27789 0.498749C2.65307 0.741394 2.12305 1.06598 1.59501 1.59421C1.06657 2.12226 0.741988 2.65227 0.498551 3.2769C0.26303 3.88114 0.102718 4.57167 0.0571977 5.58262C0.0118749 6.59595 0 6.91994 0 9.49998C0 12.08 0.0114793 12.4028 0.0573959 13.4161C0.103906 14.4275 0.26402 15.1178 0.498749 15.7219C0.741592 16.3467 1.06617 16.8767 1.59441 17.4047C2.12226 17.9332 2.65227 18.2586 3.2767 18.5012C3.88114 18.7361 4.57167 18.8962 5.58282 18.9426C6.59615 18.9887 6.91974 19 9.49958 19C12.0798 19 12.4026 18.9887 13.4159 18.9426C14.4273 18.8962 15.1184 18.7361 15.7229 18.5012C16.3475 18.2586 16.8767 17.9332 17.4046 17.4047C17.933 16.8767 18.2576 16.3467 18.501 15.7221C18.7345 15.1178 18.8949 14.4273 18.9424 13.4163C18.9879 12.403 18.9998 12.08 18.9998 9.49998C18.9998 6.91994 18.9879 6.59615 18.9424 5.58282C18.8949 4.57147 18.7345 3.88114 18.501 3.2771C18.2576 2.65227 17.933 2.12226 17.4046 1.59421C16.8761 1.06578 16.3477 0.741196 15.7223 0.498749C15.1166 0.263822 14.4259 0.103708 13.4146 0.0573959C12.4012 0.0112814 12.0786 0 9.4978 0H9.50077ZM8.64854 1.71197C8.90148 1.71158 9.18371 1.71197 9.50077 1.71197C12.0373 1.71197 12.3379 1.72108 13.3396 1.7666C14.2658 1.80895 14.7685 1.96372 15.1034 2.09376C15.5467 2.26594 15.8628 2.47177 16.1951 2.80427C16.5276 3.13677 16.7334 3.45344 16.906 3.89677C17.036 4.23125 17.191 4.73396 17.2332 5.6602C17.2787 6.66166 17.2886 6.96249 17.2886 9.4978C17.2886 12.0331 17.2787 12.3339 17.2332 13.3354C17.1908 14.2616 17.036 14.7643 16.906 15.0988C16.7338 15.5422 16.5276 15.8578 16.1951 16.1901C15.8626 16.5226 15.5469 16.7285 15.1034 16.9007C14.7689 17.0313 14.2658 17.1857 13.3396 17.228C12.3381 17.2735 12.0373 17.2834 9.50077 17.2834C6.96408 17.2834 6.66344 17.2735 5.66199 17.228C4.73574 17.1853 4.23303 17.0305 3.89796 16.9005C3.45463 16.7283 3.13796 16.5224 2.80546 16.1899C2.47296 15.8574 2.26713 15.5416 2.09455 15.098C1.96452 14.7636 1.80955 14.2608 1.76739 13.3346C1.72187 12.3331 1.71277 12.0323 1.71277 9.49542C1.71277 6.95853 1.72187 6.65929 1.76739 5.65783C1.80975 4.73158 1.96452 4.22887 2.09455 3.894C2.26673 3.45067 2.47296 3.134 2.80546 2.8015C3.13796 2.469 3.45463 2.26317 3.89796 2.09059C4.23283 1.95996 4.73574 1.80559 5.66199 1.76304C6.53836 1.72345 6.87798 1.71158 8.64854 1.7096V1.71197ZM14.5718 3.28937C13.9424 3.28937 13.4318 3.7994 13.4318 4.42897C13.4318 5.05834 13.9424 5.56897 14.5718 5.56897C15.2012 5.56897 15.7118 5.05834 15.7118 4.42897C15.7118 3.79959 15.2012 3.28897 14.5718 3.28897V3.28937ZM9.50077 4.62134C6.80654 4.62134 4.62213 6.80574 4.62213 9.49998C4.62213 12.1942 6.80654 14.3776 9.50077 14.3776C12.195 14.3776 14.3786 12.1942 14.3786 9.49998C14.3786 6.80574 12.1948 4.62134 9.50057 4.62134H9.50077ZM9.50077 6.33332C11.2496 6.33332 12.6674 7.75099 12.6674 9.49998C12.6674 11.2488 11.2496 12.6666 9.50077 12.6666C7.75178 12.6666 6.33411 11.2488 6.33411 9.49998C6.33411 7.75099 7.75178 6.33332 9.50077 6.33332Z" fill="white" fill-opacity="0.8"/>
</svg>
