<svg width="18" height="18" viewBox="0 0 18 18" fill="none" xmlns="http://www.w3.org/2000/svg">
<path d="M15.3524 2.25023H2.64742C2.50461 2.24824 2.3628 2.27441 2.2301 2.32724C2.09739 2.38007 1.9764 2.45852 1.87402 2.55811C1.77164 2.6577 1.68988 2.77649 1.63342 2.90768C1.57695 3.03888 1.54688 3.17991 1.54492 3.32273V16.1777C1.54688 16.3205 1.57695 16.4616 1.63342 16.5928C1.68988 16.724 1.77164 16.8427 1.87402 16.9423C1.9764 17.0419 2.09739 17.1204 2.2301 17.1732C2.3628 17.226 2.50461 17.2522 2.64742 17.2502H15.3524C15.4952 17.2522 15.637 17.226 15.7697 17.1732C15.9024 17.1204 16.0234 17.0419 16.1258 16.9423C16.2282 16.8427 16.31 16.724 16.3664 16.5928C16.4229 16.4616 16.453 16.3205 16.4549 16.1777V3.32273C16.453 3.17991 16.4229 3.03888 16.3664 2.90768C16.31 2.77649 16.2282 2.6577 16.1258 2.55811C16.0234 2.45852 15.9024 2.38007 15.7697 2.32724C15.637 2.27441 15.4952 2.24824 15.3524 2.25023ZM6.06742 14.8052H3.81742V8.05523H6.06742V14.8052ZM4.94242 7.11023C4.63212 7.11023 4.33452 6.98696 4.11511 6.76754C3.89569 6.54812 3.77242 6.25053 3.77242 5.94023C3.77242 5.62992 3.89569 5.33233 4.11511 5.11291C4.33452 4.89349 4.63212 4.77023 4.94242 4.77023C5.10719 4.75154 5.27405 4.76787 5.43208 4.81814C5.5901 4.86841 5.73573 4.95149 5.85941 5.06195C5.9831 5.1724 6.08207 5.30774 6.14983 5.45909C6.21758 5.61044 6.25261 5.7744 6.25261 5.94023C6.25261 6.10605 6.21758 6.27001 6.14983 6.42137C6.08207 6.57272 5.9831 6.70805 5.85941 6.81851C5.73573 6.92896 5.5901 7.01204 5.43208 7.06231C5.27405 7.11259 5.10719 7.12891 4.94242 7.11023ZM14.1824 14.8052H11.9324V11.1827C11.9324 10.2752 11.6099 9.68273 10.7924 9.68273C10.5394 9.68458 10.2931 9.76394 10.0865 9.91011C9.88003 10.0563 9.72329 10.2622 9.63742 10.5002C9.57873 10.6765 9.5533 10.8622 9.56242 11.0477V14.7977H7.31242C7.31242 14.7977 7.31242 8.66273 7.31242 8.04773H9.56242V9.00023C9.76682 8.64556 10.0641 8.35337 10.4223 8.15513C10.7804 7.95689 11.1858 7.86012 11.5949 7.87523C13.0949 7.87523 14.1824 8.84273 14.1824 10.9202V14.8052Z" fill="#F0F0F0" fill-opacity="0.933333"/>
</svg>
