<svg width="20" height="17" viewBox="0 0 20 17" fill="none" xmlns="http://www.w3.org/2000/svg">
<path fill-rule="evenodd" clip-rule="evenodd" d="M2.26377 0.543016C3.15511 -0.245477 4.62596 -0.164471 5.39986 0.715734L7.55425 3.16605C7.9496 3.61571 8.08931 4.2012 7.93313 4.75385L7.27581 7.07972C7.20642 7.32527 7.28775 7.58502 7.49007 7.764L10.4406 10.3741C10.6429 10.5531 10.9366 10.625 11.2142 10.5636L13.8434 9.98217C14.4681 9.84401 15.13 9.96759 15.6383 10.3173L18.4082 12.2231C19.4032 12.9077 19.4948 14.2089 18.6035 14.9974L17.3616 16.0959C16.4732 16.8819 15.1443 17.227 13.9058 16.8418C10.8308 15.8854 7.94442 14.3197 5.48713 12.1459C3.02984 9.97218 1.25987 7.41883 0.178767 4.69862C-0.25665 3.60305 0.133476 2.4275 1.02194 1.64155L2.26377 0.543016Z" fill="white" fill-opacity="0.8"/>
</svg>
