<svg width="35" height="35" viewBox="0 0 35 35" fill="none" xmlns="http://www.w3.org/2000/svg">
<path d="M22.9103 18.5355C23.043 18.3968 23.1471 18.2333 23.2165 18.0543C23.3624 17.6992 23.3624 17.301 23.2165 16.9459C23.1471 16.7669 23.043 16.6034 22.9103 16.4647L18.5353 12.0897C18.2607 11.8151 17.8882 11.6608 17.4998 11.6608C17.1115 11.6608 16.739 11.8151 16.4644 12.0897C16.1898 12.3643 16.0355 12.7367 16.0355 13.1251C16.0355 13.5134 16.1898 13.8859 16.4644 14.1605L18.3603 16.0418H13.1248C12.7381 16.0418 12.3671 16.1954 12.0936 16.4689C11.8202 16.7424 11.6665 17.1133 11.6665 17.5001C11.6665 17.8869 11.8202 18.2578 12.0936 18.5313C12.3671 18.8048 12.7381 18.9584 13.1248 18.9584H18.3603L16.4644 20.8397C16.3277 20.9752 16.2192 21.1365 16.1452 21.3142C16.0712 21.492 16.0331 21.6826 16.0331 21.8751C16.0331 22.0676 16.0712 22.2582 16.1452 22.4359C16.2192 22.6136 16.3277 22.7749 16.4644 22.9105C16.6 23.0472 16.7613 23.1557 16.939 23.2297C17.1167 23.3038 17.3073 23.3419 17.4998 23.3419C17.6924 23.3419 17.883 23.3038 18.0607 23.2297C18.2384 23.1557 18.3997 23.0472 18.5353 22.9105L22.9103 18.5355ZM32.0832 17.5001C32.0832 14.6158 31.2279 11.7962 29.6254 9.39802C28.023 6.9998 25.7454 5.13062 23.0806 4.02684C20.4159 2.92307 17.4837 2.63427 14.6548 3.19697C11.8259 3.75967 9.22739 5.1486 7.18787 7.18811C5.14835 9.22763 3.75943 11.8261 3.19673 14.655C2.63402 17.4839 2.92282 20.4161 4.0266 23.0809C5.13038 25.7456 6.99956 28.0232 9.39778 29.6257C11.796 31.2281 14.6155 32.0834 17.4998 32.0834C21.3676 32.0834 25.0769 30.547 27.8118 27.8121C30.5467 25.0772 32.0832 21.3678 32.0832 17.5001ZM5.83318 17.5001C5.83318 15.1926 6.51742 12.937 7.79937 11.0184C9.08131 9.09986 10.9034 7.60452 13.0352 6.72149C15.167 5.83847 17.5128 5.60743 19.7759 6.05759C22.039 6.50775 24.1178 7.6189 25.7494 9.25051C27.381 10.8821 28.4922 12.9609 28.9423 15.224C29.3925 17.4871 29.1615 19.8329 28.2784 21.9647C27.3954 24.0965 25.9001 25.9186 23.9815 27.2006C22.0629 28.4825 19.8073 29.1668 17.4998 29.1668C14.4057 29.1668 11.4382 27.9376 9.25026 25.7497C7.06234 23.5617 5.83318 20.5943 5.83318 17.5001Z" fill="#0A3C79"/>
</svg>
