<svg width="16" height="16" viewBox="0 0 16 16" fill="none" xmlns="http://www.w3.org/2000/svg">
<path d="M14.675 0.25H1.325C1.1062 0.25 0.896354 0.336919 0.741637 0.491637C0.586919 0.646354 0.5 0.856196 0.5 1.075V14.425C0.5 14.5333 0.521339 14.6406 0.562799 14.7407C0.60426 14.8408 0.665029 14.9318 0.741637 15.0084C0.818245 15.085 0.909193 15.1457 1.00929 15.1872C1.10938 15.2287 1.21666 15.25 1.325 15.25H8.51V9.4375H6.56V7.1875H8.51V5.5C8.46961 5.10382 8.51638 4.70359 8.64704 4.3274C8.77769 3.95121 8.98907 3.60816 9.26635 3.32231C9.54362 3.03646 9.88008 2.81473 10.2521 2.67268C10.6242 2.53063 11.0228 2.47169 11.42 2.5C12.0037 2.49641 12.5872 2.52646 13.1675 2.59V4.615H11.975C11.03 4.615 10.85 5.065 10.85 5.7175V7.165H13.1L12.8075 9.415H10.85V15.25H14.675C14.7833 15.25 14.8906 15.2287 14.9907 15.1872C15.0908 15.1457 15.1818 15.085 15.2584 15.0084C15.335 14.9318 15.3957 14.8408 15.4372 14.7407C15.4787 14.6406 15.5 14.5333 15.5 14.425V1.075C15.5 0.966659 15.4787 0.85938 15.4372 0.759286C15.3957 0.659193 15.335 0.568245 15.2584 0.491637C15.1818 0.415029 15.0908 0.35426 14.9907 0.312799C14.8906 0.271339 14.7833 0.25 14.675 0.25Z" fill="#F0F0F0" fill-opacity="0.933333"/>
</svg>
