<svg width="16" height="16" viewBox="0 0 16 16" fill="none" xmlns="http://www.w3.org/2000/svg">
<path d="M14.3525 0.250105H1.64754C1.50473 0.248121 1.36292 0.27429 1.23022 0.327118C1.09752 0.379945 0.976521 0.458395 0.874142 0.557989C0.771763 0.657582 0.690005 0.776368 0.633538 0.907562C0.577071 1.03876 0.547 1.17979 0.545044 1.3226V14.1776C0.547 14.3204 0.577071 14.4615 0.633538 14.5926C0.690005 14.7238 0.771763 14.8426 0.874142 14.9422C0.976521 15.0418 1.09752 15.1203 1.23022 15.1731C1.36292 15.2259 1.50473 15.2521 1.64754 15.2501H14.3525C14.4954 15.2521 14.6372 15.2259 14.7699 15.1731C14.9026 15.1203 15.0236 15.0418 15.1259 14.9422C15.2283 14.8426 15.3101 14.7238 15.3666 14.5926C15.423 14.4615 15.4531 14.3204 15.455 14.1776V1.3226C15.4531 1.17979 15.423 1.03876 15.3666 0.907562C15.3101 0.776368 15.2283 0.657582 15.1259 0.557989C15.0236 0.458395 14.9026 0.379945 14.7699 0.327118C14.6372 0.27429 14.4954 0.248121 14.3525 0.250105ZM5.06754 12.8051H2.81754V6.0551H5.06754V12.8051ZM3.94254 5.1101C3.63224 5.1101 3.33465 4.98684 3.11523 4.76742C2.89581 4.548 2.77254 4.25041 2.77254 3.9401C2.77254 3.6298 2.89581 3.33221 3.11523 3.11279C3.33465 2.89337 3.63224 2.7701 3.94254 2.7701C4.10732 2.75142 4.27418 2.76775 4.4322 2.81802C4.59022 2.86829 4.73585 2.95137 4.85954 3.06183C4.98322 3.17228 5.08219 3.30761 5.14995 3.45897C5.21771 3.61032 5.25273 3.77428 5.25273 3.9401C5.25273 4.10593 5.21771 4.26989 5.14995 4.42124C5.08219 4.5726 4.98322 4.70793 4.85954 4.81838C4.73585 4.92884 4.59022 5.01192 4.4322 5.06219C4.27418 5.11246 4.10732 5.12879 3.94254 5.1101ZM13.1825 12.8051H10.9325V9.1826C10.9325 8.2751 10.61 7.6826 9.79254 7.6826C9.53954 7.68446 9.29319 7.76381 9.08667 7.90998C8.88016 8.05615 8.72341 8.26211 8.63754 8.5001C8.57885 8.67638 8.55342 8.86203 8.56254 9.0476V12.7976H6.31254C6.31254 12.7976 6.31254 6.6626 6.31254 6.0476H8.56254V7.0001C8.76694 6.64543 9.06422 6.35324 9.42237 6.15501C9.78053 5.95677 10.186 5.85999 10.595 5.8751C12.095 5.8751 13.1825 6.84261 13.1825 8.9201V12.8051Z" fill="#F0F0F0" fill-opacity="0.933333"/>
</svg>
