<svg width="31" height="31" viewBox="0 0 31 31" fill="none" xmlns="http://www.w3.org/2000/svg">
<path d="M3.87492 10.3333H27.1249C27.4675 10.3333 27.796 10.1972 28.0383 9.95501C28.2805 9.71278 28.4166 9.38424 28.4166 9.04167C28.4166 8.6991 28.2805 8.37056 28.0383 8.12832C27.796 7.88609 27.4675 7.75 27.1249 7.75H3.87492C3.53235 7.75 3.20381 7.88609 2.96157 8.12832C2.71934 8.37056 2.58325 8.6991 2.58325 9.04167C2.58325 9.38424 2.71934 9.71278 2.96157 9.95501C3.20381 10.1972 3.53235 10.3333 3.87492 10.3333ZM27.1249 20.6667H3.87492C3.53235 20.6667 3.20381 20.8028 2.96157 21.045C2.71934 21.2872 2.58325 21.6158 2.58325 21.9583C2.58325 22.3009 2.71934 22.6294 2.96157 22.8717C3.20381 23.1139 3.53235 23.25 3.87492 23.25H27.1249C27.4675 23.25 27.796 23.1139 28.0383 22.8717C28.2805 22.6294 28.4166 22.3009 28.4166 21.9583C28.4166 21.6158 28.2805 21.2872 28.0383 21.045C27.796 20.8028 27.4675 20.6667 27.1249 20.6667ZM27.1249 14.2083H3.87492C3.53235 14.2083 3.20381 14.3444 2.96157 14.5867C2.71934 14.8289 2.58325 15.1574 2.58325 15.5C2.58325 15.8426 2.71934 16.1711 2.96157 16.4133C3.20381 16.6556 3.53235 16.7917 3.87492 16.7917H27.1249C27.4675 16.7917 27.796 16.6556 28.0383 16.4133C28.2805 16.1711 28.4166 15.8426 28.4166 15.5C28.4166 15.1574 28.2805 14.8289 28.0383 14.5867C27.796 14.3444 27.4675 14.2083 27.1249 14.2083Z" fill="white"/>
</svg>
