<svg width="19" height="19" viewBox="0 0 19 19" fill="none" xmlns="http://www.w3.org/2000/svg">
<path d="M9.50089 0C6.92082 0 6.59703 0.0112815 5.58368 0.0573966C4.57232 0.10371 3.88198 0.263826 3.27793 0.498755C2.6531 0.741404 2.12307 1.06599 1.59503 1.59424C1.06658 2.12228 0.741997 2.65231 0.498557 3.27694C0.263034 3.88119 0.10272 4.57172 0.0571984 5.58269C0.011875 6.59604 0 6.92003 0 9.5001C0 12.0802 0.0114795 12.403 0.0573966 13.4163C0.103908 14.4277 0.264024 15.118 0.498755 15.7221C0.741602 16.3469 1.06619 16.8769 1.59443 17.405C2.12228 17.9334 2.65231 18.2588 3.27674 18.5014C3.88119 18.7364 4.57172 18.8965 5.58289 18.9428C6.59624 18.9889 6.91983 19.0002 9.4997 19.0002C12.08 19.0002 12.4028 18.9889 13.4161 18.9428C14.4275 18.8965 15.1186 18.7364 15.7231 18.5014C16.3477 18.2588 16.8769 17.9334 17.4048 17.405C17.9332 16.8769 18.2578 16.3469 18.5012 15.7223C18.7348 15.118 18.8951 14.4275 18.9426 13.4165C18.9881 12.4032 19 12.0802 19 9.5001C19 6.92003 18.9881 6.59623 18.9426 5.58289C18.8951 4.57153 18.7348 3.88119 18.5012 3.27714C18.2578 2.65231 17.9332 2.12228 17.4048 1.59424C16.8763 1.06579 16.3479 0.741206 15.7225 0.498755C15.1168 0.263826 14.4261 0.10371 13.4147 0.0573966C12.4014 0.0112815 12.0788 0 9.49792 0H9.50089ZM8.64865 1.712C8.90159 1.7116 9.18382 1.712 9.50089 1.712C12.0374 1.712 12.3381 1.7211 13.3397 1.76662C14.266 1.80898 14.7687 1.96375 15.1036 2.09378C15.5469 2.26597 15.863 2.47181 16.1953 2.80431C16.5278 3.13681 16.7336 3.45348 16.9062 3.89682C17.0362 4.2313 17.1912 4.73402 17.2334 5.66028C17.2789 6.66175 17.2888 6.96258 17.2888 9.49792C17.2888 12.0333 17.2789 12.3341 17.2334 13.3356C17.191 14.2618 17.0362 14.7645 16.9062 15.099C16.734 15.5424 16.5278 15.858 16.1953 16.1903C15.8628 16.5228 15.5471 16.7287 15.1036 16.9009C14.7691 17.0315 14.266 17.1859 13.3397 17.2282C12.3383 17.2738 12.0374 17.2836 9.50089 17.2836C6.96417 17.2836 6.66353 17.2738 5.66206 17.2282C4.7358 17.1855 4.23309 17.0307 3.89801 16.9007C3.45467 16.7285 3.138 16.5226 2.8055 16.1901C2.47299 15.8576 2.26716 15.5418 2.09457 15.0982C1.96454 14.7637 1.80957 14.261 1.76741 13.3348C1.72189 12.3333 1.71279 12.0325 1.71279 9.49555C1.71279 6.95862 1.72189 6.65937 1.76741 5.6579C1.80977 4.73164 1.96454 4.22893 2.09457 3.89405C2.26676 3.45071 2.47299 3.13404 2.8055 2.80154C3.138 2.46904 3.45467 2.2632 3.89801 2.09062C4.23289 1.95999 4.7358 1.80561 5.66206 1.76306C6.53844 1.72348 6.87807 1.7116 8.64865 1.70962V1.712ZM14.572 3.28941C13.9426 3.28941 13.432 3.79945 13.432 4.42902C13.432 5.05841 13.9426 5.56904 14.572 5.56904C15.2013 5.56904 15.712 5.05841 15.712 4.42902C15.712 3.79964 15.2013 3.28901 14.572 3.28901V3.28941ZM9.50089 4.6214C6.80662 4.6214 4.62219 6.80583 4.62219 9.5001C4.62219 12.1944 6.80662 14.3778 9.50089 14.3778C12.1952 14.3778 14.3788 12.1944 14.3788 9.5001C14.3788 6.80583 12.195 4.6214 9.50069 4.6214H9.50089ZM9.50089 6.3334C11.2497 6.3334 12.6676 7.75109 12.6676 9.5001C12.6676 11.2489 11.2497 12.6668 9.50089 12.6668C7.75188 12.6668 6.33419 11.2489 6.33419 9.5001C6.33419 7.75109 7.75188 6.3334 9.50089 6.3334Z" fill="white" fill-opacity="0.8"/>
</svg>
