<svg width="25" height="25" viewBox="0 0 25 25" fill="none" xmlns="http://www.w3.org/2000/svg">
<path d="M12.5 5C12.3358 4.99996 12.1733 5.03226 12.0216 5.09506C11.8699 5.15787 11.7321 5.24994 11.616 5.36602C11.4999 5.4821 11.4079 5.61992 11.3451 5.77159C11.2823 5.92327 11.25 6.08583 11.25 6.25V11.7297L8.21168 13.2587C8.06508 13.3324 7.93444 13.4343 7.82722 13.5585C7.72 13.6827 7.63829 13.8269 7.58677 13.9827C7.53525 14.1385 7.51493 14.3029 7.52695 14.4666C7.53898 14.6302 7.58312 14.7899 7.65686 14.9365C7.7306 15.0831 7.83249 15.2138 7.95672 15.321C8.08095 15.4282 8.22508 15.5099 8.38088 15.5614C8.53668 15.6129 8.70111 15.6333 8.86477 15.6212C9.02843 15.6092 9.18812 15.5651 9.33472 15.4913L13.0615 13.6163C13.2685 13.5124 13.4426 13.353 13.5642 13.1559C13.6858 12.9587 13.7501 12.7316 13.75 12.5V6.25C13.75 6.08583 13.7177 5.92327 13.6549 5.77159C13.5921 5.61992 13.5001 5.4821 13.384 5.36602C13.2679 5.24994 13.1301 5.15787 12.9784 5.09506C12.8267 5.03226 12.6642 4.99996 12.5 5V5ZM12.5 0C10.0277 0 7.61099 0.733112 5.55538 2.10663C3.49976 3.48015 1.89761 5.43238 0.951511 7.71645C0.0054161 10.0005 -0.242126 12.5139 0.24019 14.9386C0.722505 17.3634 1.91301 19.5907 3.66117 21.3388C5.40933 23.087 7.63661 24.2775 10.0614 24.7598C12.4861 25.2421 14.9995 24.9946 17.2835 24.0485C19.5676 23.1024 21.5199 21.5002 22.8934 19.4446C24.2669 17.389 25 14.9723 25 12.5C24.9962 9.18595 23.678 6.00873 21.3346 3.66535C18.9913 1.32197 15.814 0.00379138 12.5 0V0ZM12.5 22.5C10.5222 22.5 8.58879 21.9135 6.9443 20.8147C5.29981 19.7159 4.01809 18.1541 3.26121 16.3268C2.50433 14.4996 2.3063 12.4889 2.69215 10.5491C3.078 8.60928 4.03041 6.82746 5.42894 5.42893C6.82746 4.03041 8.60929 3.078 10.5491 2.69215C12.4889 2.30629 14.4996 2.50433 16.3268 3.2612C18.1541 4.01808 19.7159 5.2998 20.8147 6.9443C21.9135 8.58879 22.5 10.5222 22.5 12.5C22.497 15.1512 21.4424 17.693 19.5677 19.5677C17.693 21.4424 15.1512 22.497 12.5 22.5V22.5Z" fill="white"/>
</svg>
