<svg width="20" height="18" viewBox="0 0 20 18" fill="none" xmlns="http://www.w3.org/2000/svg">
<path fill-rule="evenodd" clip-rule="evenodd" d="M2.52158 0.712296C3.40706 -0.0710113 4.86824 0.00946204 5.63705 0.883877L7.77727 3.31808C8.17002 3.76478 8.30881 4.34642 8.15365 4.89543L7.50066 7.206C7.43173 7.44994 7.51252 7.70798 7.71351 7.88578L10.6447 10.4787C10.8456 10.6565 11.1373 10.728 11.4131 10.667L14.0251 10.0894C14.6457 9.95211 15.3032 10.0749 15.8081 10.4223L18.5598 12.3156C19.5483 12.9957 19.6393 14.2883 18.7538 15.0716L17.5202 16.1629C16.6375 16.9437 15.3174 17.2865 14.0871 16.9039C11.0323 15.9538 8.16487 14.3983 5.72374 12.2389C3.28262 10.0794 1.52429 7.54288 0.450296 4.84057C0.0177431 3.75221 0.405303 2.58439 1.28792 1.80361L2.52158 0.712296Z" fill="white" fill-opacity="0.8"/>
</svg>
